<svg width="23" height="23" viewBox="0 0 23 23" fill="none" xmlns="http://www.w3.org/2000/svg">
<path d="M20.8655 0.953125H2.1106C1.25122 0.953125 0.552979 1.66113 0.552979 2.53027V21.251C0.552979 22.1201 1.25122 22.8281 2.1106 22.8281H20.8655C21.7249 22.8281 22.428 22.1201 22.428 21.251V2.53027C22.428 1.66113 21.7249 0.953125 20.8655 0.953125ZM7.16431 19.7031H3.92212V9.26367H7.16919V19.7031H7.16431ZM5.54321 7.83789C4.50317 7.83789 3.66333 6.99316 3.66333 5.95801C3.66333 4.92285 4.50317 4.07812 5.54321 4.07812C6.57837 4.07812 7.4231 4.92285 7.4231 5.95801C7.4231 6.99805 6.58325 7.83789 5.54321 7.83789ZM19.3176 19.7031H16.0754V14.625C16.0754 13.4141 16.051 11.8564 14.3909 11.8564C12.7014 11.8564 12.4426 13.1748 12.4426 14.5371V19.7031H9.20044V9.26367H12.3108V10.6895H12.3547C12.7893 9.86914 13.8489 9.00488 15.426 9.00488C18.7073 9.00488 19.3176 11.168 19.3176 13.9805V19.7031Z" fill="black"/>
</svg>
