<svg width="23" height="23" viewBox="0 0 23 23" fill="none" xmlns="http://www.w3.org/2000/svg">
<path d="M11.5181 6.28003C8.4126 6.28003 5.90771 8.78491 5.90771 11.8904C5.90771 14.9958 8.4126 17.5007 11.5181 17.5007C14.6235 17.5007 17.1284 14.9958 17.1284 11.8904C17.1284 8.78491 14.6235 6.28003 11.5181 6.28003ZM11.5181 15.5378C9.51123 15.5378 7.8706 13.9021 7.8706 11.8904C7.8706 9.87866 9.50635 8.24292 11.5181 8.24292C13.5298 8.24292 15.1655 9.87866 15.1655 11.8904C15.1655 13.9021 13.5249 15.5378 11.5181 15.5378ZM18.6665 6.05054C18.6665 6.77808 18.0806 7.35913 17.3579 7.35913C16.6304 7.35913 16.0493 6.77319 16.0493 6.05054C16.0493 5.32788 16.6353 4.74194 17.3579 4.74194C18.0806 4.74194 18.6665 5.32788 18.6665 6.05054ZM22.3823 7.37866C22.2993 5.62573 21.8989 4.073 20.6147 2.7937C19.3354 1.5144 17.7827 1.11401 16.0298 1.02612C14.2231 0.923584 8.80811 0.923584 7.00146 1.02612C5.25342 1.10913 3.70068 1.50952 2.4165 2.78882C1.13232 4.06812 0.736816 5.62085 0.648926 7.37378C0.546387 9.18042 0.546387 14.5955 0.648926 16.4021C0.731934 18.155 1.13232 19.7078 2.4165 20.9871C3.70068 22.2664 5.24854 22.6667 7.00146 22.7546C8.80811 22.8572 14.2231 22.8572 16.0298 22.7546C17.7827 22.6716 19.3354 22.2712 20.6147 20.9871C21.894 19.7078 22.2944 18.155 22.3823 16.4021C22.4849 14.5955 22.4849 9.1853 22.3823 7.37866ZM20.0483 18.3406C19.6675 19.2976 18.9302 20.0349 17.9683 20.4207C16.5278 20.9919 13.1099 20.8601 11.5181 20.8601C9.92627 20.8601 6.50342 20.9871 5.06787 20.4207C4.11084 20.0398 3.37354 19.3025 2.98779 18.3406C2.4165 16.9001 2.54834 13.4822 2.54834 11.8904C2.54834 10.2986 2.42139 6.87573 2.98779 5.44019C3.36865 4.48315 4.10596 3.74585 5.06787 3.36011C6.5083 2.78882 9.92627 2.92065 11.5181 2.92065C13.1099 2.92065 16.5327 2.7937 17.9683 3.36011C18.9253 3.74097 19.6626 4.47827 20.0483 5.44019C20.6196 6.88062 20.4878 10.2986 20.4878 11.8904C20.4878 13.4822 20.6196 16.905 20.0483 18.3406Z" fill="black"/>
</svg>
